<?xml version="1.0" encoding="utf-8"?>
<!-- Generator: Adobe Illustrator 24.3.0, SVG Export Plug-In . SVG Version: 6.00 Build 0)  -->
<svg version="1.1" id="Слой_1" xmlns="http://www.w3.org/2000/svg" xmlns:xlink="http://www.w3.org/1999/xlink" x="0px" y="0px"
	 viewBox="0 0 3200 2000" style="enable-background:new 0 0 3200 2000;" xml:space="preserve">
<style type="text/css">
	.st0{filter:url(#Adobe_OpacityMaskFilter);}
	.st1{opacity:0;mask:url(#SVGID_1_);fill:url(#SVGID_2_);}
	.st2{fill:#EBF3FA;}
	.st3{fill:#DFEBFD;}
	.st4{fill:#BED7FB;}
	.st5{fill:#9EC3F6;}
	.st6{fill:#CDE0FB;}
	.st7{fill:#FFFFFF;}
	.st8{fill:#ADCBF9;}
	.st9{fill:#D86713;}
	.st10{fill:#F99746;}
	.st11{fill:#EE9849;}
	.st12{fill:#F1A34F;}
	.st13{opacity:0.4;fill:#D86713;}
	.st14{fill:#699DEE;}
	.st15{fill:#E9F3FE;}
	.st16{fill:#AFCDFB;}
	.st17{fill:#2B478B;}
	.st18{fill:#233862;}
	.st19{fill:#C65447;}
	.st20{fill:#FFB27D;}
	.st21{fill:#E2915A;}
	.st22{fill:#FCECDB;}
	.st23{fill:#548EE2;}
	.st24{fill:#F4D2B8;}
	.st25{fill:#568CDB;}
	.st26{fill:#B5453C;}
	.st27{fill:#ED7D2B;}
	.st28{fill:#ED975D;}
	.st29{fill:#EBF3FF;}
	.st30{fill:#2E3552;}
</style>
<defs>
	<filter id="Adobe_OpacityMaskFilter" filterUnits="userSpaceOnUse" x="0.01" y="0.01" width="3200" height="2000">
		<feColorMatrix  type="matrix" values="1 0 0 0 0  0 1 0 0 0  0 0 1 0 0  0 0 0 1 0"/>
	</filter>
</defs>
<mask maskUnits="userSpaceOnUse" x="0.01" y="0.01" width="3200" height="2000" id="SVGID_1_">
	<g class="st0">
	</g>
</mask>
<linearGradient id="SVGID_2_" gradientUnits="userSpaceOnUse" x1="6.836000e-03" y1="1000.0095" x2="3200.0068" y2="1000.0095">
	<stop  offset="0" style="stop-color:#FFFFFF"/>
	<stop  offset="1" style="stop-color:#000000"/>
</linearGradient>
<rect x="0.01" y="0.01" class="st1" width="3200" height="2000"/>
<g>
	<path class="st2" d="M496.08,1774.85c0,0-337.47-362.34-57.07-754.62c248.79-348.06,538.86-324.27,751.67-183.02
		c90.64,60.16,351.97,7.41,574.39-346.75C2068.4,7.48,3119.84,300.41,2928.13,1043.49c-92.77,359.6,282.35,372.67,91.21,732.13
		L496.08,1774.85z"/>
	<g>
		
			<rect x="596.95" y="1351.04" transform="matrix(0.7358 -0.6772 0.6772 0.7358 -824.2349 913.9809)" class="st3" width="324.59" height="324.59"/>
		
			<rect x="509.18" y="1385.28" transform="matrix(0.7358 -0.6772 0.6772 0.7358 -782.843 829.3494)" class="st4" width="324.59" height="65.37"/>
	</g>
	<g>
		<polygon class="st5" points="1466.26,343.18 1630.03,366.54 1521.35,292.47 1515.82,316.21 1476,323.43 		"/>
		<polygon class="st6" points="1630.03,366.54 1493.75,296.28 1360.18,289.56 		"/>
		<polygon class="st6" points="1521.35,292.47 1630.03,366.54 1545.9,250.77 		"/>
	</g>
	<g>
		<path class="st7" d="M2382.03,666.26l-41.19,29.56l-41.41-29.24c9.18-12.91,24.33-21.45,41.41-21.45
			C2357.81,645.13,2372.85,653.45,2382.03,666.26z"/>
		<g>
			<path class="st7" d="M2340.84,573.09c-41.41,0-78.01,20.6-100.21,52.08l26.15,18.35c16.43-23.26,43.54-38.42,74.06-38.42
				c30.31,0,57.2,14.94,73.63,37.88l26.04-18.68C2418.21,593.26,2381.82,573.09,2340.84,573.09z"/>
		</g>
		<g>
			<path class="st7" d="M2340.84,436.18c-87.61,0-165.09,43.54-212.04,110.13l26.15,18.35c41.19-58.27,109.17-96.47,185.9-96.47
				c76.09,0,143.64,37.56,184.94,95.08l25.93-18.68C2504.65,478.97,2427.7,436.18,2340.84,436.18z"/>
		</g>
		<g>
			<path class="st7" d="M2340.84,511.09c-62.32,0-117.6,30.84-151.22,78.12l26.14,18.36c27.85-38.95,73.53-64.46,125.07-64.46
				c51.12,0,96.47,25.08,124.43,63.5l25.93-18.57C2457.48,541.4,2402.63,511.09,2340.84,511.09z"/>
		</g>
	</g>
	<path class="st8" d="M1486.4,845.62l-37.76-0.87c12.13,15.73,14.86,30.21,7.3,42.47c-7.55,12.51-25.63,22.78-52.62,30.58
		c20.43-54.36,30.71-111.69,30.71-170.5c0-127.2-49.49-251.7-142.89-344.84c-90.41-90.41-212.61-142.89-344.84-142.89
		c-74.25,0-145.99,16.46-211.24,47.92c-0.02,0.01-0.04,0.02-0.06,0.03c-20.98-6.4-41.41-11.65-61.12-15.64
		c-99.51-20.19-170.13-6.24-198.82,39.3c-27.3,43.31-12.44,108.5,41.73,184.54c-0.01,0.01-0.01,0.02-0.02,0.04
		c-12.1,22.36-23.75,48.89-32.32,74.29c-101.78,6.07-156.26,23.98-176.07,56.42c-23.03,37.77,8.42,88.45,109.09,137.73
		c13.87,6.81,28.73,13.5,44.33,20.18c12.06,105.96,60.33,208.67,139.54,287.88c44.82,44.7,96.95,79.86,155.02,104.5
		c177.9,75.04,389.97,39.91,534.78-104.5c43.58-43.58,78.13-94.35,102.52-150.56c49.65-10.28,82.34-26.37,95.34-47.67
		C1498.04,879.3,1496.92,862.95,1486.4,845.62z M1369.88,925.48c-33.06,5.94-74.29,9.41-122.46,9.91
		c-74.74,0.91-160.58-4.99-251.04-16.91c7.61-16.57,15.07-33.6,22.35-51.01c28.07,9.39,55.31,16.83,81.29,22.1
		c29.76,6.04,56.93,9.02,81.17,9.02c56.83,0,97.54-16.41,117.65-48.33c3.31-5.26,6.01-10.83,8.09-16.72h-28.97
		c-0.48,0.88-0.99,1.75-1.52,2.6c-14.94,23.71-48.31,35.96-95.18,35.95c-22.41,0-47.93-2.8-75.98-8.49
		c-24.44-4.96-50.08-11.92-76.51-20.7c6.98-17.45,13.76-35.24,20.31-53.29c17.66-48.69,32.78-96.95,45-143.3
		c99.1,14.61,202.64,15.05,302.1,7.55c6.29,30.51,9.47,61.74,9.47,93.45C1405.67,809.09,1393.66,869.02,1369.88,925.48z
		 M766.34,1167.28c-14.09-5.11-21.24-25.33-24.76-41.4c-5.56-25.39-6.57-61.05-2.91-103.12c1.85-21.28,4.82-43.9,8.83-67.57
		c57.75,15.39,114.94,35.18,170.63,59.04c-12.54,21.63-25.23,41.68-37.91,59.86c-24.16,34.64-47.79,61.36-68.34,77.28
		C798.89,1161.45,780.43,1172.39,766.34,1167.28z M930.89,991.59c-58.29-25.12-118.22-45.88-178.74-61.9
		c2.13-10.98,4.47-22.16,7.01-33.51c16.83,3.83,33.9,7.53,51.18,11.1c50.58,10.34,101.03,19.13,150.42,26.23
		C950.98,953.75,941,973.15,930.89,991.59z M821.49,888.96c-19.54-4.02-38.8-8.22-57.73-12.58c8.91-37.08,19.86-75.73,32.63-115.11
		c66.42,40.83,133.98,74.05,197.93,97.62c-8.02,19.16-16.27,37.84-24.68,55.91C921.06,907.82,871.36,899.18,821.49,888.96z
		 M659.25,388.5c36.92,75.64,108.08,137.97,184.65,179.31c-18.55,40.42-36.22,83.56-52.47,128.36c-3.03,8.35-5.97,16.69-8.85,25.01
		c-97.04-63.16-179.19-135.64-233.09-205.79c-0.01-0.01-0.01-0.02-0.02-0.03C577.91,466.83,614.98,423.99,659.25,388.5z
		 M1074.18,318.5c14.09,5.11,21.24,25.33,24.76,41.4c5.56,25.39,6.57,61.05,2.91,103.12c-4.01,46.05-13.23,98.36-26.95,154.06
		c-67.48-11.61-134.92-30.75-197.01-60.89c26.46-55.19,54.44-104.4,82.42-144.51c24.16-34.64,47.79-61.36,68.34-77.28
		c10.72-8.31,25.14-17.2,37.77-17.2C1069.1,317.2,1071.71,317.6,1074.18,318.5z M1068.48,642.17
		c-11.91,44.82-26.58,91.5-43.68,138.63c-6.59,18.17-13.41,36.05-20.43,53.58C940.16,810.8,872,777.09,805,735.43
		c3.46-10.12,7.04-20.28,10.73-30.46c15.88-43.79,33.12-85.93,51.19-125.4C930.16,610.23,998.67,630.01,1068.48,642.17z
		 M1271.08,422.4c59.58,59.58,99.11,131.15,119.1,205.98c-105.9,7.74-202.94,5.31-289.68-7.24c13.77-56.24,23.03-109.15,27.1-155.88
		c4.49-51.61,3.94-112.73-16.98-147.13C1171.22,341.41,1225.37,376.56,1271.08,422.4z M946.3,287.81c31.83,0,63.13,3.2,93.73,9.56
		c-36.09,15.71-72.94,59.44-100.91,99.53c-28.63,41.04-57.21,91.26-84.21,147.47c-72.87-39.59-141.69-100.29-174.59-171.79
		C757.13,317.95,849.51,287.81,946.3,287.81z M497.46,345.31c14.94-23.71,48.31-35.95,95.18-35.95c22.42,0,47.93,2.8,75.98,8.49
		c10.65,2.16,21.52,4.69,32.58,7.61c0.01,0,0.02,0,0.03,0.01c-66.91,38.7-125.85,94.7-169.73,164.91c-0.01,0.01-0.02,0.02-0.02,0.04
		C490.06,428.93,477.61,376.79,497.46,345.31z M535.71,540.77c0-0.01,0.01-0.02,0.01-0.02c56.75,70.93,140.39,143.44,238.13,206.33
		c-13.86,42.18-25.68,83.63-35.22,123.35c-81.03-19.6-175.21-47.33-249.59-78.8c-6.17-61.68,0.55-124.11,19.07-183.01
		C515.29,585.79,524.82,562.25,535.71,540.77z M440,769.59c-87.79-42.84-127.91-84.2-109.95-113.54
		c14.49-23.77,67.23-39.87,147.97-45.81c-16.27,54.93-21.93,112.04-18.57,168.52C452.75,775.78,446.31,772.69,440,769.59z
		 M734,890.33c-2.5,11.17-4.81,22.18-6.93,33.01c-5.63-1.37-11.27-2.7-16.91-3.99c-95.3-21.69-166.81-26.1-199.96-26.85
		c-8.21-24.73-14.25-50.03-18.07-75.85C557.05,841.62,630.13,865.58,734,890.33z M519.8,918.71c35.35,1.42,100.9,6.78,184.63,25.83
		c5.99,1.36,11.98,2.79,17.96,4.25c-4.31,25.13-7.49,49.15-9.45,71.72c-3.72,42.77-3.98,92.08,7.95,127.3
		c-36.31-20.44-69.61-45.73-99.49-75.61C576.85,1027.67,542.57,975.51,519.8,918.71z M806.98,1185.31
		c33.99-17.81,68.14-58.73,94.44-96.43c13.56-19.44,27.12-40.96,40.5-64.19c77.16,34.94,151.35,77.87,221.04,127.88
		C1048.08,1213.96,918.71,1220.9,806.98,1185.31z M1271.08,1072.21c-25.4,25.47-53.36,47.6-83.57,66.24
		c-73.21-53.5-151.42-99.3-232.91-136.37c11.2-20.53,22.24-42.21,33.02-64.84c74.59,9.89,146.3,15.82,211.76,17.35
		c17.09,0.49,33.68,0.49,49.78,0.37c41.73-0.49,78.87-2.97,110.7-7.43C1337.57,993.71,1307.73,1035.56,1271.08,1072.21z"/>
	<g>
		<g>
			<path class="st9" d="M1260.66,921.74l-67.45,801.98c0,0-7.07,48.61,29.09,48.7c59.46,0.14,295.93,0,295.93,0
				s-44.75-10.12-44.21-32.89c0.64-26.84,78.83-825.38,78.83-825.38L1260.66,921.74z"/>
			<path class="st10" d="M1537.42,1757.86c-11.69,0.03-237.56,0.74-295.46,0c-25.23-0.31-29.66-22.44-29.87-36.75
				c-0.1-6.86,0.77-11.94,0.77-11.94l1.75-20.84l4.47-53.13l3.95-46.94l5.07-60.32l4.27-50.91l47.92-569.86l292.21-7.58
				c0,0-32.93,334.18-56.23,577.44c-2.6,27.1-5.07,53.09-7.36,77.35c-0.74,7.75-1.45,15.32-2.15,22.69
				c-2.16,23.02-4.13,44.15-5.85,62.81c-0.91,9.84-1.74,18.97-2.5,27.35c-2.97,32.8-4.71,53.75-4.74,57.74
				c-0.01,2.32,0.19,4.48,0.57,6.49C1499.05,1757.03,1533.03,1757.86,1537.42,1757.86z"/>
			<polygon class="st10" points="551.02,485.33 715.31,1145.26 737.81,1235.64 814.33,1543.01 2235.93,1543.01 1953.9,485.33 			"/>
			<polygon class="st11" points="551.02,485.33 528.25,492.92 784.06,1565.97 814.33,1543.02 			"/>
			<polygon class="st9" points="784.06,1565.97 2196.91,1565.97 2235.93,1543.02 814.33,1543.02 			"/>
			
				<rect x="1280.21" y="1758.19" transform="matrix(-1 -1.224647e-16 1.224647e-16 -1 2866.3267 3530.9072)" class="st12" width="305.9" height="14.54"/>
			<polygon class="st12" points="2167.06,1348.12 1936.39,499.31 548.75,499.31 548.75,485.33 1953.89,485.33 2183.8,1346.23 			"/>
			<polygon class="st9" points="1508.35,1565.97 1506.77,1577.08 1219.08,1635.2 1223.03,1588.26 1224.91,1565.97 			"/>
			<path class="st13" d="M1537.42,1757.86c-11.69,0.03-237.56,0.74-295.46,0c-25.23-0.31-29.66-22.44-29.87-36.75l286.33-53.87
				c-2.97,32.8-4.71,53.75-4.74,57.74c-0.01,2.32,0.19,4.48,0.57,6.49C1499.05,1757.03,1533.03,1757.86,1537.42,1757.86z"/>
			<polygon class="st13" points="1438.82,1328.9 814.33,1543.02 737.81,1235.64 			"/>
			<polygon class="st14" points="551.02,485.33 1953.89,485.33 2181.51,1335.38 755.41,1335.38 			"/>
		</g>
		<path class="st9" d="M1562.82,1442.83c-4.05-20.85-24.24-37.75-45.08-37.75c-20.85,0-34.46,16.9-30.41,37.75
			c4.05,20.85,24.24,37.75,45.08,37.75C1553.26,1480.58,1566.87,1463.68,1562.82,1442.83z"/>
		<polygon class="st15" points="2115.36,1298.54 801.84,1298.54 653.08,705.96 641.68,660.52 631.95,621.75 624.16,590.72 
			609.13,530.86 1903.72,530.86 1904.62,534.16 1920.21,590.72 1928.76,621.75 1939.46,660.52 1951.99,705.96 		"/>
		<polygon class="st15" points="2115.36,1300.57 801.84,1300.57 653.08,707.98 641.68,662.54 631.95,623.78 624.16,592.75 
			609.13,532.89 1903.72,532.89 1904.62,536.18 1920.21,592.75 1928.76,623.78 1939.46,662.54 1951.99,707.98 		"/>
		<polygon class="st16" points="1920.21,590.72 624.16,590.72 609.13,530.86 1903.22,530.86 1904.62,534.16 		"/>
		<g>
			<path class="st15" d="M645.14,560.79c-1.56-6.27,2.25-11.36,8.53-11.36s12.63,5.09,14.19,11.36c1.56,6.27-2.25,11.36-8.53,11.36
				S646.71,567.07,645.14,560.79z"/>
			
				<ellipse transform="matrix(0.662 -0.7495 0.7495 0.662 -185.6489 709.9444)" class="st15" cx="694.26" cy="560.79" rx="10.03" ry="12.87"/>
			<path class="st15" d="M723.55,560.79c-1.56-6.27,2.25-11.36,8.53-11.36s12.63,5.09,14.19,11.36c1.56,6.27-2.25,11.36-8.53,11.36
				S725.11,567.07,723.55,560.79z"/>
		</g>
		<g>
			<path class="st17" d="M1211.01,1300.57h-129.88c-1.25-10.15-2.34-20.88-3.33-32.07c-1.74-20.08-3.08-41.67-4.06-64.14
				c-0.24-5.18-0.44-10.41-0.63-15.67c-0.25-6.7-0.46-13.48-0.66-20.29c-0.32-11.57-0.57-23.27-0.75-35.04
				c-0.01-0.01-0.01-0.03-0.01-0.04c-0.23-15.01-0.34-30.12-0.37-45.17c0-0.01,0-0.01,0-0.01c-0.01-3.76-0.01-7.51-0.01-11.26v-0.01
				c0-3.53,0.01-7.04,0.02-10.55c0.11-32.4,0.6-64.18,1.29-93.73c1.49-65.38,3.92-119.86,5.21-146.05v-0.01
				c0.52-10.75,0.86-16.73,0.86-16.73c0.01,0,0.02,0.01,0.03,0.01c0.29,0.05,2.26,0.41,5.36,1.15c2.27,0.55,5.16,1.31,8.44,2.32
				h0.01c2.96,0.89,6.24,2,9.68,3.3c0.01,0,0.02,0,0.03,0.01c5.85,2.25,12.16,5.13,18.09,8.74c0.09,0.05,0.18,0.09,0.27,0.14
				c9.7,6.02,18.46,14,22.45,24.54c3.43,8.95,11.45,57.06,21.15,120.96c0.27,1.82,0.54,3.66,0.83,5.51
				c5.13,33.93,10.67,72,16.24,110.88c5.9,41.2,11.79,83.27,17.21,122.26C1203.12,1243.05,1207.41,1274.21,1211.01,1300.57z"/>
			<path class="st18" d="M1174.63,1300.57h-151.18c-2.9-12.47-5.61-24.5-8.02-35.79c-6.64-31.1-11.01-56.59-10.77-70.28
				c0.11-6.42,2.54-11.44,6.7-15.3c2.85-2.65,6.52-4.75,10.83-6.39c12.75-4.84,31.08-5.64,50.26-4.41
				c6.52,0.41,13.13,1.04,19.65,1.83c35.93,4.36,69.29,13.25,69.29,13.25s2.23,9.02,4.87,24.79c1.98,11.83,4.19,27.47,5.83,45.94
				c0.95,10.73,1.72,22.42,2.15,34.88C1174.35,1292.82,1174.49,1296.66,1174.63,1300.57z"/>
			<path class="st19" d="M1104.82,1194.68l-1.51,10.92l-7.32,53.03l-1.25,9.05l-4.54,32.88H932.66c-1.22-21.73-2.35-42.9-2.57-61.36
				c-0.02-2.05-0.03-4.05-0.03-6.02c0-27.8,2.44-48.41,10.41-53.61c9.03-5.9,38.99-4.28,70.89-0.37c3.18,0.38,6.38,0.8,9.59,1.23
				c18.59,2.5,37.2,5.59,52.16,8.25c7.76,1.38,14.54,2.65,19.82,3.66C1100.37,1193.76,1104.82,1194.68,1104.82,1194.68z"/>
			<path class="st7" d="M930.05,837.13c0,0,86.55-55.97,148.64-27.34c9.89,4.56,21.18,17.29,29.26,26.19
				c22.44,24.73,66.29,417.52,66.29,417.52s-124.47,42.16-244.18-14.31V837.13z"/>
			<path class="st17" d="M1083.61,808.37c0,0,87.62,35.91,99.49,63.5c11.87,27.59,50.44,197.03,50.44,216.9
				c0,19.87-67.16,4.44-77.97-27.6c-8.98-26.61-39.26-108.36-55.23-160.06L1083.61,808.37z"/>
			<g>
				<path class="st20" d="M1065.42,835.73c-19.13,3.75-47.23-0.25-67.8-13.81c9.29-22.18,13.1-39.7,14.45-51.04
					c0.08-0.6,0.14-1.19,0.2-1.75c0.61-5.88,0.52-9.86,0.24-11.69h49.45c0,0,13.52,6.18,13.52,10.45c0,2.28,0.02,4.47,0.06,6.56
					c0.1,5.69,0.33,10.65,0.62,14.92c0.94,13.88,2.53,20.41,2.53,20.41S1084.73,831.94,1065.42,835.73z"/>
				<path class="st21" d="M1076.16,789.37c-37.47,7.24-59.22-13.23-64.09-18.49c-0.69-0.75-1.05-1.2-1.05-1.2
					c0.4-0.2,0.81-0.38,1.25-0.55c13.95-5.65,45.6-1.16,63.27,5.32C1075.63,780.15,1075.86,785.11,1076.16,789.37z"/>
				<path class="st20" d="M999.83,749.32c6.69,36.03,53.19,34.85,73.28,32.58c5.65-0.63,9.21-1.35,9.21-1.35
					c6.38-1.7,9.93-11.75,11.59-24.9c3.28-26.03-0.86-64.25-5.26-74.02c-6.62-14.71-19.09-30.61-65.91-19.14
					C975.91,673.98,991.24,703.15,999.83,749.32z"/>
				<path class="st18" d="M1090.39,661.53c-6.4-8.86-19.97-19.69-32.29-26.35c-26.48-14.32-60.36,0.45-60.5,0.51
					c-38.24,16.81-48.23,46.07-27.96,91.65c21.44,48.2,41.86,42.77,41.86,42.77s-4.33-2.7-3.94-17.72c0.02-0.85,0.06-1.57,0.1-2.18
					c0.2-3.08-0.89-6.16-3.19-8.22c-4.75-4.24-7.07-17.06-3.09-20.63c4.8-4.31,11.54,0.92,13.7,4.95c1.88,2.84,5.25,3.84,8.39,1.85
					c11.9-7.52,4.17-22.58,15.54-31.78c11.37-9.21,34.45-1.48,51.52-8.81C1112.86,679.25,1095.21,668.21,1090.39,661.53z"/>
			</g>
			<path class="st17" d="M1096.53,1300.57H908.07c1.35-39.08,3.08-85.74,4.9-132.98c0.46-12.25,0.95-24.55,1.43-36.75
				c0.22-5.17,0.41-10.31,0.61-15.45c4.16-104.91,8.3-199.65,9.17-204.76c1.98-11.54,3.85-21.38,5.87-29.91
				c5.92-24.85,13.28-38.48,29.32-50.2c1.56-1.19,14.4-7.65,25.7-13.29c9.24-4.58,17.45-8.59,17.7-8.7v-0.01h0.01
				c1.87,0.91,3.93,3.51,6.1,7.37c2.17,3.86,4.46,9,6.8,15c8.61,22.13,17.92,55.99,24.38,81.28c0.01,0.03,0.02,0.06,0.02,0.08
				c0.01,0.02,0.01,0.03,0.01,0.05c0,0.01,0,0.01,0,0.01c4.16,16.33,7.15,29.04,8,32.7c1.45,6.16,3.35,18.07,5.6,34.21v0.04
				c3.04,22.01,6.68,51.88,10.53,85.78v0.01c0.4,3.49,0.79,7.01,1.19,10.56c0.45,4.06,0.92,8.17,1.38,12.32v0.01
				c0.15,1.33,0.29,2.67,0.43,4.01v0.01c1.48,13.42,2.98,27.26,4.46,41.35c0,0.01,0,0.03,0.01,0.04
				c1.27,11.61,18.88,20.02,20.1,31.85c0.09,0.86,0.18,2.6,0.29,5.02c0.23,5,0.5,12.94,0.83,22.12c0.14,4.08,0.28,8.42,0.44,12.84
				c0.69,19.67,1.54,41.22,2.5,51.58c0.05,0.49,0.09,1.11,0.12,1.87c0.11,2.07,0.2,5.12,0.28,8.94
				C1096.43,1275.7,1096.51,1287.32,1096.53,1300.57z"/>
			<path class="st18" d="M967.97,952.93c-0.06,0.24-3,106.09,76.62,118.94c79.62,12.86,26.72,16.26,26.72,16.26
				s-149.81-6.37-152.28-10.32C916.56,1073.85,967.97,952.93,967.97,952.93z"/>
			<path class="st18" d="M1035.25,1117.31c0,0-1.49,1.06-4.36,2.91c-0.05,0.02-0.1,0.06-0.15,0.09
				c-12.15,7.75-48.2,28.89-100.69,43.06c-5.51,1.49-11.21,2.91-17.07,4.21c0.46-12.24,0.95-24.54,1.42-36.74
				c-6.93-0.54-13.57-1.42-19.73-2.73c0.21-1.61,0.43-3.22,0.63-4.84c6.68-2.74,13.31-5.38,19.71-7.88
				c5.21-2.04,10.26-3.98,15.03-5.78c21.56-8.19,37.54-13.74,37.54-13.74l63.82,20.22L1035.25,1117.31z"/>
			<path class="st17" d="M1052.14,1115.54c0,0-8.2,2.05-21.25,4.68c-0.05,0-0.09,0.01-0.14,0.03
				c-24.07,4.84-64.55,11.62-100.7,11.25c-5.33-0.06-10.57-0.27-15.65-0.66c-6.93-0.54-13.57-1.42-19.73-2.73
				c-13.21-2.79-24.28-7.51-31.52-14.89c-53.78-54.77,29.35-251.36,46.82-270.49c20.4-22.33,57.64-30.17,78.21-32.86
				c0.86-0.11,1.68-0.22,2.48-0.32c7.23-0.86,11.87-1.04,12.13-1.05c0.01,0,0.01,0,0.01,0s-1.61,5.18-4.31,13.98
				c-1.05,3.4-2.27,7.35-3.6,11.75c-12.63,41.36-37,122.65-47.74,168.5c-3.94,16.78-6.04,28.8-5.08,32.39
				c4.19,15.66,47.64,23.71,75.17,27.27c11.48,1.48,20.2,2.19,22.15,2.33c0.14,0,0.27,0.01,0.41,0.03l1.59,6.53l3.81,15.66
				l3.75,15.38L1052.14,1115.54z"/>
			<polygon class="st10" points="1202.12,1209.77 1017.44,1201.99 1054.91,971.82 1239.59,979.61 			"/>
			<path class="st20" d="M1039.78,1064.76c0,0,35.95-2.51,37.76,5.87c4.2,19.53-30.91,35.57-42.28,34.48
				C1023.87,1104.01,1031.5,1063.46,1039.78,1064.76z"/>
			<path class="st20" d="M1229.5,1026.34c0,0-34.4-10.75-38.09-3.02c-8.61,18.03,21.84,41.76,33.16,43.32
				C1235.89,1068.21,1237.85,1026.99,1229.5,1026.34z"/>
			<path class="st18" d="M1006.52,796.95c0,0-15.12,7.21-22.71,18.09c0,0,56.54,98.16,56.28,97.24
				C1039.85,911.36,1020.99,809.53,1006.52,796.95z"/>
			<path class="st18" d="M1076.94,798.34c4.98,1.88,14.53,11.66,16.68,17.07l6.72,85.69c0,0-14.35-62.89-21.65-91.32
				C1076.83,802.56,1077.17,800.37,1076.94,798.34z"/>
			<path class="st19" d="M1116.13,974.4c0,0,1.46-6.39,9.87-5.64c8.41,0.74,55.64,3.06,55.64,3.06s9.11-0.15,8.26,5.69
				L1116.13,974.4z"/>
			<path class="st7" d="M1061.95,757.45c0,0,6.13,5.59,16.02,3.86c5.87-1.03,9.15-8.65,9.15-8.65S1075.85,750.62,1061.95,757.45z"/>
		</g>
		<g>
			<g>
				<polygon class="st7" points="1937.09,829.07 1800.67,829.58 1756.43,660.21 1892.85,659.71 				"/>
				<g>
					<polygon class="st8" points="1859.01,681.96 1801.81,682.17 1801.16,679.67 1858.36,679.45 					"/>
					<polygon class="st8" points="1868.15,688.92 1796.33,689.19 1795.68,686.68 1867.49,686.42 					"/>
					<g>
						<polygon class="st8" points="1887.89,723.39 1794.61,723.74 1793.96,721.23 1887.24,720.88 						"/>
						<polygon class="st8" points="1890.05,731.65 1796.77,731.99 1796.11,729.49 1889.4,729.14 						"/>
						<polygon class="st8" points="1892.21,739.91 1798.92,740.25 1798.27,737.75 1891.55,737.4 						"/>
						<polygon class="st8" points="1894.36,748.16 1801.08,748.51 1800.43,746 1893.71,745.66 						"/>
						<polygon class="st8" points="1896.52,756.42 1803.24,756.77 1802.58,754.26 1895.87,753.92 						"/>
					</g>
					<g>
						<polygon class="st8" points="1901.77,776.52 1808.49,776.86 1807.83,774.36 1901.12,774.01 						"/>
						<polygon class="st8" points="1903.93,784.78 1810.64,785.12 1809.99,782.61 1903.27,782.27 						"/>
						<polygon class="st8" points="1906.09,793.03 1812.8,793.38 1812.15,790.87 1905.43,790.53 						"/>
						<polygon class="st8" points="1908.24,801.29 1814.96,801.64 1814.3,799.13 1907.59,798.79 						"/>
						<polygon class="st8" points="1910.4,809.55 1817.12,809.89 1816.46,807.39 1909.74,807.04 						"/>
					</g>
				</g>
			</g>
			<g>
				<polygon class="st7" points="1992.06,1039.53 1855.64,1040.03 1811.4,870.66 1947.82,870.16 				"/>
				<g>
					<polygon class="st8" points="1913.99,892.42 1856.78,892.63 1856.13,890.12 1913.33,889.91 					"/>
					<polygon class="st8" points="1923.12,899.38 1851.3,899.64 1850.65,897.14 1922.46,896.87 					"/>
					<g>
						<polygon class="st8" points="1942.87,933.85 1849.58,934.19 1848.93,931.68 1942.21,931.34 						"/>
						<polygon class="st8" points="1945.02,942.1 1851.74,942.45 1851.08,939.94 1944.37,939.6 						"/>
						<polygon class="st8" points="1947.18,950.36 1853.9,950.71 1853.24,948.2 1946.52,947.86 						"/>
						<polygon class="st8" points="1949.34,958.62 1856.05,958.96 1855.4,956.46 1948.68,956.11 						"/>
						<polygon class="st8" points="1951.49,966.88 1858.21,967.22 1857.56,964.72 1950.84,964.37 						"/>
					</g>
					<g>
						<polygon class="st8" points="1956.74,986.97 1863.46,987.32 1862.8,984.81 1956.09,984.47 						"/>
						<polygon class="st8" points="1958.9,995.23 1865.62,995.58 1864.96,993.07 1958.25,992.73 						"/>
						<polygon class="st8" points="1961.06,1003.49 1867.77,1003.83 1867.12,1001.33 1960.4,1000.98 						"/>
						<polygon class="st8" points="1963.21,1011.75 1869.93,1012.09 1869.28,1009.58 1962.56,1009.24 						"/>
						<polygon class="st8" points="1965.37,1020 1872.09,1020.35 1871.43,1017.84 1964.72,1017.5 						"/>
					</g>
				</g>
			</g>
			<g>
				<polygon class="st7" points="2047.4,1251.4 1910.98,1251.9 1866.74,1082.54 2003.16,1082.03 				"/>
				<g>
					<polygon class="st8" points="1969.33,1104.29 1912.13,1104.5 1911.47,1101.99 1968.67,1101.78 					"/>
					<polygon class="st8" points="1978.46,1111.25 1906.64,1111.51 1905.99,1109.01 1977.81,1108.74 					"/>
					<g>
						<polygon class="st8" points="1998.21,1145.72 1904.92,1146.06 1904.27,1143.55 1997.55,1143.21 						"/>
						<polygon class="st8" points="2000.36,1153.97 1907.08,1154.32 1906.43,1151.81 1999.71,1151.47 						"/>
						<polygon class="st8" points="2002.52,1162.23 1909.24,1162.58 1908.58,1160.07 2001.87,1159.73 						"/>
						<polygon class="st8" points="2004.68,1170.49 1911.39,1170.83 1910.74,1168.33 2004.02,1167.98 						"/>
						<polygon class="st8" points="2006.84,1178.75 1913.55,1179.09 1912.9,1176.59 2006.18,1176.24 						"/>
					</g>
					<g>
						<polygon class="st8" points="2012.08,1198.84 1918.8,1199.19 1918.15,1196.68 2011.43,1196.34 						"/>
						<polygon class="st8" points="2014.24,1207.1 1920.96,1207.45 1920.3,1204.94 2013.59,1204.6 						"/>
						<polygon class="st8" points="2016.4,1215.36 1923.11,1215.7 1922.46,1213.2 2015.74,1212.85 						"/>
						<polygon class="st8" points="2018.55,1223.62 1925.27,1223.96 1924.62,1221.45 2017.9,1221.11 						"/>
						<polygon class="st8" points="2020.71,1231.87 1927.43,1232.22 1926.77,1229.71 2020.06,1229.37 						"/>
					</g>
				</g>
			</g>
			<g>
				<g>
					<polygon class="st7" points="1868.02,1252.82 1390.88,1254.59 1253.56,728.86 1315.72,661.93 1713.3,660.46 					"/>
					<polygon class="st8" points="1581.86,749.31 1413.7,749.93 1411.78,742.56 1579.94,741.94 					"/>
					<polygon class="st8" points="1608.71,769.77 1397.59,770.55 1395.66,763.19 1606.79,762.41 					"/>
					<g>
						<polygon class="st8" points="1666.76,871.1 1392.53,872.11 1390.61,864.74 1664.84,863.73 						"/>
						<polygon class="st8" points="1673.1,895.38 1398.87,896.39 1396.95,889.02 1671.18,888.01 						"/>
						<polygon class="st8" points="1679.44,919.65 1405.22,920.66 1403.29,913.3 1677.52,912.28 						"/>
						<polygon class="st8" points="1685.78,943.93 1411.56,944.94 1409.63,937.57 1683.86,936.56 						"/>
						<polygon class="st8" points="1692.13,968.2 1417.9,969.22 1415.97,961.85 1690.2,960.84 						"/>
					</g>
					<g>
						<polygon class="st8" points="1707.56,1027.28 1433.33,1028.29 1431.4,1020.92 1705.63,1019.91 						"/>
						<polygon class="st8" points="1713.9,1051.56 1439.67,1052.57 1437.74,1045.2 1711.97,1044.19 						"/>
						<polygon class="st8" points="1720.24,1075.83 1446.01,1076.84 1444.09,1069.48 1718.31,1068.46 						"/>
						<polygon class="st8" points="1726.58,1100.11 1452.35,1101.12 1450.43,1093.75 1724.65,1092.74 						"/>
						<polygon class="st8" points="1732.92,1124.38 1458.69,1125.4 1456.77,1118.03 1731,1117.02 						"/>
					</g>
				</g>
				<polygon class="st8" points="1253.56,728.86 1333.13,728.57 1315.72,661.93 				"/>
			</g>
		</g>
	</g>
	<g>
		<g>
			<g>
				<path class="st22" d="M2402.79,1665.14h-388.44v-137.19h389.68c30.3,0,54.86,24.56,54.86,54.86v26.24
					C2458.89,1640.02,2433.78,1665.14,2402.79,1665.14z"/>
				<path class="st14" d="M2790.44,1584.39v20.64c0,11.03-2.96,21.36-8.15,30.23c-10.41,17.86-29.78,29.87-51.96,29.87h-727.88
					c-4.82,0-8.72-3.9-8.72-8.71v-3.09c0-4.81,3.9-8.71,8.72-8.71h443.71c2.37-2.89,4.46-6.02,6.23-9.36
					c4.16-7.83,6.5-16.75,6.5-26.23v-26.24c0-4.83-0.62-9.51-1.8-13.96c-1.99-7.55-5.54-14.47-10.29-20.37h-444.35
					c-4.82,0-8.72-3.9-8.72-8.72v-3.08c0-4.82,3.9-8.72,8.72-8.72h731.54c25.78,0,47.52,17.28,54.27,40.89
					C2789.68,1573.78,2790.44,1579,2790.44,1584.39z"/>
				<path class="st23" d="M2788.26,1568.84h-331.17c-1.99-7.55-5.54-14.47-10.29-20.37h-444.35c-4.82,0-8.72-3.9-8.72-8.72v-3.08
					c0-4.82,3.9-8.72,8.72-8.72h731.54C2759.77,1527.95,2781.51,1545.23,2788.26,1568.84z"/>
			</g>
			<polygon class="st24" points="2014.36,1596.54 2068.25,1598.85 2014.36,1600.24 			"/>
			<polygon class="st24" points="2014.36,1618.07 2142.58,1620.37 2014.36,1621.76 			"/>
		</g>
		<g>
			<g>
				<g>
					<path class="st17" d="M2106.99,1771.56h413.5v-106.71h-416.86c-28.54,0-51.68,23.14-51.68,51.68v0
						C2051.96,1746.92,2076.6,1771.56,2106.99,1771.56z"/>
					<path class="st22" d="M2496.76,1771.56h470.6v-106.71h-471.8c-29.02,0-52.54,23.52-52.54,52.54v0.43
						C2443.03,1747.5,2467.08,1771.56,2496.76,1771.56z"/>
					<path class="st17" d="M2411.6,1771.56h572.1c4.41,0,7.98-3.57,7.98-7.98l0,0c0-4.41-3.57-7.98-7.98-7.98h-572.1
						c-4.41,0-7.98,3.57-7.98,7.98l0,0C2403.62,1767.99,2407.2,1771.56,2411.6,1771.56z"/>
					<path class="st17" d="M2411.6,1680.81h572.1c4.41,0,7.98-3.57,7.98-7.98l0,0c0-4.41-3.57-7.98-7.98-7.98h-572.1
						c-4.41,0-7.98,3.57-7.98,7.98l0,0C2403.62,1677.24,2407.2,1680.81,2411.6,1680.81z"/>
				</g>
				<polygon class="st24" points="2967.36,1718.2 2903.8,1720 2967.36,1721.08 				"/>
				<polygon class="st24" points="2967.36,1693.65 2816.13,1695.44 2967.36,1696.52 				"/>
			</g>
			<g>
				<path class="st14" d="M2817.68,1695.08c0,0,6.48,4.58,8.63,12.12c0.38,1.32,0.62,2.73,0.67,4.22c0.36,10.01,0,32.67,0,32.67
					l19.13-11.33l19.08,11.33v-30.71c0-5.81-1.64-11.46-4.68-15.16c-1.47-1.79-3.26-3.14-5.29-3.14H2817.68z"/>
				<path class="st25" d="M2817.68,1695.08c0,0,6.48,4.58,8.63,12.12l38.35,0.45c0,0-1.5-10.79-9.42-12.57H2817.68z"/>
			</g>
		</g>
		<g>
			<g>
				<g>
					<path class="st22" d="M2448.64,1528.24h422.48v-156.78h-423.87c-33.83,0-61.26,27.43-61.26,61.26v32.87
						C2385.99,1500.19,2414.04,1528.24,2448.64,1528.24z"/>
					<path class="st26" d="M2395.92,1432.28v33.74c0.1,14.41,8.08,26.91,19.8,33.6c5.77,3.28,12.44,5.16,19.53,5.16h458.8
						c5.38,0,9.74,4.36,9.74,9.74v3.98c0,5.38-4.36,9.74-9.74,9.74h-792.59c-22.74,0-42.84-11.3-54.98-28.61
						c-7.65-10.9-12.15-24.18-12.15-38.52v-26.62c0-9.82,2.25-19.12,6.26-27.41c10.19-21.08,31.78-35.62,56.77-35.62h796.69
						c5.38,0,9.74,4.35,9.74,9.73v3.98c0,5.38-4.36,9.74-9.74,9.74h-460.21c-11,0-20.95,4.68-27.91,12.17
						C2399.79,1413.71,2395.99,1422.55,2395.92,1432.28z"/>
				</g>
				<polygon class="st24" points="2871.11,1449.85 2812.3,1452.48 2871.11,1454.07 				"/>
				<polygon class="st24" points="2871.11,1413.76 2731.19,1416.4 2871.11,1417.99 				"/>
			</g>
			<g>
				<path class="st10" d="M2732.63,1415.88c0,0,9.23,4.97,12.29,13.14c0.54,1.43,0.89,2.96,0.96,4.57c0.51,10.86,0,35.43,0,35.43
					l27.26-12.29l27.19,12.29v-33.3c0-6.3-2.33-12.42-6.67-16.43c-2.1-1.94-4.65-3.41-7.53-3.41H2732.63z"/>
				<path class="st27" d="M2732.63,1415.88c0,0,9.23,4.97,12.29,13.14l54.64,0.49c0,0-2.14-11.7-13.42-13.63H2732.63z"/>
			</g>
		</g>
	</g>
	<g>
		<g>
			<path class="st18" d="M2455.98,1313.32c24.18,42.09,54.6,58.33,54.6,58.33h126.54
				C2637.11,1371.66,2437.53,1281.22,2455.98,1313.32z"/>
			<g>
				<path class="st20" d="M2553.17,1638.97c3.3,3.78,3.72,8,2.09,12.51c0,0.02-0.01,0.04-0.03,0.06
					c-3.02,8.34-12.99,17.65-24.57,26.95c-1.48,1.19-2.8,2.28-3.94,3.29c-0.3,0.26-0.6,0.53-0.88,0.79
					c-0.23,0.2-0.46,0.42-0.68,0.61c-10.8,9.96-6.74,12.24-26.14,32.44c-22.12,23.02-37.36,23.43-41.69,21.34
					c-3.67-1.79,3.78-14,12.04-27.72c0.4-0.66,0.79-1.33,1.2-2c1.1-1.82,2.19-3.68,3.28-5.51c9.67-16.52,7.19-24.26,4.89-48.84
					c-1.86-19.97-31.07-111.58-31.07-111.58l42.4-7.3c0,0,12.77,72.95,26.84,84.18c7.52,5.99,15.94,6.06,23.17,10.5
					c0.51,0.31,1.01,0.62,1.5,0.95C2545.67,1632.37,2549.86,1635.18,2553.17,1638.97z"/>
				<path class="st18" d="M2553.17,1638.97c3.3,3.78,3.72,8,2.09,12.51c0,0.02-0.01,0.04-0.03,0.06
					c-3.7,8.33-13.42,17.6-24.61,26.87c-1.46,1.21-2.75,2.33-3.9,3.37c-0.3,0.26-0.6,0.53-0.88,0.79c-0.23,0.2-0.46,0.42-0.68,0.61
					c-10.8,9.96-6.74,12.24-26.14,32.44c-22.12,23.02-37.36,23.43-41.69,21.34c-3.67-1.79,3.78-14,12.04-27.72
					c4.31-1.58,24.31-9.7,39.44-29.06c13.32-17,22.21-38.84,31.28-51.49c0.51,0.31,1.01,0.62,1.5,0.95
					C2545.67,1632.37,2549.86,1635.18,2553.17,1638.97z"/>
				<path class="st20" d="M2211.3,1612.49c-2.62,13.09-21.27,10.9-42.11,5.81s-15.89,0.96-45.55-2.32
					c-29.66-3.28-38.65-14.34-39.55-18.75c-0.81-3.91,13.85-5.29,29.57-7.1c1.98-0.22,3.96-0.47,5.95-0.71
					c17.75-2.23,30.75-13.68,46.87-23.09c15.27-8.91,38.06-45.21,38.06-45.21l40.68,3.22c0,0-21.35,32.42-29.6,46.52
					c-4.86,8.29-4.6,19.25-3.99,27.72C2211.92,1603.17,2212.22,1607.88,2211.3,1612.49z"/>
				<path class="st18" d="M2169.18,1618.3c-20.84-5.09-15.89,0.96-45.55-2.32c-29.66-3.28-38.65-14.34-39.55-18.75
					c-0.81-3.91,13.85-5.29,29.57-7.1l0.15,0.3c0,0,17.79,12.61,42.48,13.2c20.12,0.49,41.44-5.28,55.34-5.05
					c0.32,4.6,0.62,9.31-0.31,13.92C2208.68,1625.57,2190.02,1623.39,2169.18,1618.3z"/>
				<path class="st18" d="M2367.19,1352.37l38.03,102.33l49.65,133.61c0,0,13.47,1.3,26.38-2.41c11.88-3.43,25.51-12.42,25.51-12.42
					s-13.79-143.46-39.5-225.81c-6.59-21.14-13.98-38.24-22.13-47.86C2405.25,1252.7,2367.19,1352.37,2367.19,1352.37z"/>
				<path class="st17" d="M2405.85,1189.86c24.91-8.04,95.97,2.28,167.35,16.25l14.95-24.65l154.17-12.04
					c0,0,50.88,112.82,23.02,184.71c-4.09,10.57-12.23,17.34-26.09,17.57c0,0.01-2.25-0.01-2.25,0c0,0-91.76-0.05-121.56-0.05
					c-76.67,0-162.27-52.71-173.34-54.92c-18.12-3.62-25.37,32.62-43.5,70.68c-18.12,38.06-170.36,168.55-170.36,168.55
					s-23.4,0.23-33.06-3.39c-10.39-3.9-14.2-8.96-14.2-8.96S2349.67,1207.99,2405.85,1189.86z"/>
				<path class="st18" d="M2589.05,969.15c54.9,30.23,166.28,92.9,166.86,92.49c0,0,40.94,15.43,64.16,0
					c38.71-25.71,59.47-94.89-11.32-154.43c-35.3-29.69-60.39-36.92-64.2-84.34c-2.07-25.72-37.23-110.62-95.65-102.76
					c-4.88,0.66-34.93,2.06-54.68,12.43C2543.88,758.97,2506.75,957.45,2589.05,969.15z"/>
				<path class="st20" d="M2635.07,943.42c-0.24,0.16,27.01,9.46,45.24,1.39c17.14-7.58,30.13-35.78,29.88-35.8
					c-7.8-0.36-16.36-7.18-22.96-51.92l-3.32,1.19l-55.84,20.09c0,0,4.05,17.92,6.66,34.97
					C2636.93,927.67,2638.12,941.39,2635.07,943.42z"/>
				<path class="st28" d="M2628.07,878.38c0,0,4.05,17.92,6.66,34.97c32.07-5.77,44.66-37.73,49.17-55.07L2628.07,878.38z"/>
				<path class="st20" d="M2619.75,896.16c0,0,76.39-10.25,69.28-57.73c-7.12-47.48-2.05-80.77-51.13-76.24
					c-49.08,4.54-55.82,24.07-57.29,40.5C2579.13,819.12,2599.7,897.6,2619.75,896.16z"/>
				<path class="st18" d="M2583.39,776.67c0,0,48.9,42.14,82.17,45.54s45.86-7.28,45.86-7.28s-19.61-16.28-31.41-42.55
					c-3.48-7.74-10.82-13.06-19.28-13.79C2636.97,756.54,2591.95,755.6,2583.39,776.67z"/>
				<path class="st18" d="M2613.96,772.89c0,0-16.36,15.82-21.51,27.55c-4.97,11.32-6.46,38.4-2.5,49.16
					c0,0-25.49-49.57-11.06-73.65C2594.19,750.42,2613.96,772.89,2613.96,772.89z"/>
				<path class="st7" d="M2570.74,1055.96c2.31,154.64,0.63,122.33,17.55,137c4.08,3.53,15.54,5.64,30.62,6.63
					c47.42,3.15,130.77-4.66,133.94-13.43c10.94-30.32,3.22-39.74,12.34-86.16c0.95-4.94,2.13-10.28,3.51-16.1
					c7.61-31.88,15.01-42.73-11.98-93.95c-24.48-46.4-49.91-84.06-52.2-82.7c-64.58,38.34-69.79,6.11-69.79,6.11
					S2569.61,980.52,2570.74,1055.96z"/>
				<path class="st17" d="M2405.22,1454.7l49.65,133.61c0,0,13.47,1.3,26.38-2.41c11.88-3.43,25.51-12.42,25.51-12.42
					s-13.79-143.46-39.5-225.81L2405.22,1454.7z"/>
				<path class="st7" d="M2634.73,913.35c0,0-66.45,11.27-74.26,39.88s-53.73,196.82-53.73,196.82s33.78,6.07,49.39-9.54
					c15.61-15.61,54.3-144.79,54.3-144.79L2634.73,913.35z"/>
				<path class="st29" d="M2618.9,1199.59c47.42,3.15,130.77-4.66,133.94-13.43c10.94-30.32,3.22-39.74,12.34-86.16l-22.87-64.4
					c0,0,3.78,71.72-17.37,90.58c-21.13,18.86-86.59,36.41-96.88,52.17C2623.12,1185.92,2619.85,1193.5,2618.9,1199.59z"/>
				<path class="st20" d="M2673.23,1169.43c0,0-46.78-10.42-54.33-6.26c-7.55,4.15-26,19.27-28.31,24.53
					c-2.31,5.26,16.8-3.99,23.02-5.66c4.03-1.08,14.63,2.6,19.87,4.35c22.08,7.36,35.61,3.57,35.61,3.57L2673.23,1169.43z"/>
				<path class="st7" d="M2704.56,907.21c0,0,62.82,3.87,84.56,34.2c30.61,42.69,91.33,224.64,56.53,248.91
					c-39.19,27.33-178.37,7.15-178.37,7.15s-4.63-21.65,1.81-32.12c6.44-10.47,111.16-27.39,116-32.22
					c4.83-4.83-60.41-94.25-60.41-108.75C2724.68,1009.88,2704.56,907.21,2704.56,907.21z"/>
				<path class="st20" d="M2616.64,1176.19c0,0-9.8,12.64-13.01,14.15c-3.21,1.51-5.29,1.13-5.29,1.13l6.61-11.89L2616.64,1176.19z"
					/>
				<path class="st20" d="M2618.9,1163.16l-28.5,13.84c0,0,1.21,1.98,4.72,1.82c3.51-0.16,12.36-3.4,12.36-3.4L2618.9,1163.16z"/>
			</g>
			<g>
				<g>
					<polygon class="st10" points="2603.62,1209.71 2378.19,1209.71 2310.38,1041.07 2535.46,1041.07 					"/>
					<polygon class="st27" points="2375.55,1203.14 2673.23,1203.14 2673.23,1209.71 2378.19,1209.71 					"/>
				</g>
				<path class="st7" d="M2435.1,1125.39c-1.7-5.93,1.73-10.73,7.66-10.73s12.11,4.81,13.81,10.73c1.7,5.93-1.73,10.73-7.66,10.73
					C2442.98,1136.12,2436.8,1131.32,2435.1,1125.39z"/>
			</g>
		</g>
	</g>
	<g>
		<g>
			<path class="st16" d="M555.04,1275.93l-4.8,3.33c-5.12,3.55-12.18,2.27-15.74-2.85l-27.92-40.28
				c-3.55-5.12-2.27-12.19,2.85-15.74l6.88-4.77c1-0.7,2.38-0.45,3.08,0.56c0.7,1,0.45,2.38-0.56,3.08l-6.88,4.77
				c-3.12,2.16-3.9,6.46-1.74,9.58l27.92,40.28c2.16,3.12,6.46,3.9,9.58,1.74l4.8-3.33c3.12-2.16,3.9-6.46,1.74-9.58l-18.54-26.74
				c-0.7-1-0.45-2.38,0.56-3.08c1-0.7,2.38-0.45,3.08,0.56l18.54,26.74C561.44,1265.32,560.16,1272.38,555.04,1275.93z"/>
		</g>
		<g>
			<path class="st16" d="M585.65,1315.66l-8.61,5.97c-7.99,5.54-19.32,3.08-25.25-5.48l-41.98-60.56c-0.7-1-0.45-2.38,0.56-3.08
				c1-0.7,2.38-0.45,3.08,0.56l41.98,60.56c4.54,6.56,13.11,8.52,19.09,4.37l8.61-5.97c5.99-4.15,7.16-12.86,2.61-19.41
				l-47.81-68.99c-4.54-6.56-13.11-8.51-19.1-4.37c-1,0.7-2.38,0.45-3.08-0.56c-0.7-1-0.45-2.38,0.56-3.08
				c7.99-5.54,19.32-3.08,25.25,5.48l47.81,68.99C595.31,1298.65,593.64,1310.12,585.65,1315.66z"/>
		</g>
	</g>
	<g>
		<g>
			<path class="st16" d="M643.39,1631.99l1.04,8.53c1.1,9.11-5.41,17.42-14.51,18.52l-71.58,8.69c-9.11,1.11-17.42-5.41-18.52-14.51
				l-1.48-12.22c-0.22-1.79,1.05-3.41,2.84-3.62c1.78-0.22,3.41,1.05,3.62,2.84l1.48,12.22c0.67,5.54,5.73,9.51,11.27,8.83
				l71.58-8.69c5.54-0.67,9.51-5.73,8.83-11.27l-1.04-8.53c-0.67-5.54-5.73-9.51-11.27-8.83l-47.52,5.77
				c-1.79,0.22-3.41-1.06-3.62-2.84c-0.22-1.79,1.06-3.41,2.84-3.62l47.52-5.77C633.98,1616.37,642.29,1622.88,643.39,1631.99z"/>
		</g>
		<g>
			<path class="st16" d="M716.1,1619.42l1.86,15.29c1.72,14.2-9.25,27.25-24.47,29.1l-107.62,13.06c-1.79,0.22-3.41-1.06-3.62-2.84
				c-0.22-1.79,1.06-3.41,2.84-3.62l107.62-13.06c11.65-1.41,20.08-11.22,18.79-21.85l-1.86-15.29
				c-1.29-10.64-11.82-18.14-23.47-16.72l-122.59,14.88c-11.65,1.41-20.08,11.22-18.79,21.85c0.22,1.79-1.06,3.41-2.84,3.62
				c-1.79,0.22-3.41-1.05-3.62-2.84c-1.72-14.2,9.25-27.25,24.47-29.1l122.59-14.88C700.59,1595.17,714.37,1605.22,716.1,1619.42z"
				/>
		</g>
	</g>
	
		<ellipse transform="matrix(0.2298 -0.9732 0.9732 0.2298 840.3126 2299.7964)" class="st10" cx="1873.12" cy="619.01" rx="9.92" ry="9.92"/>
	<path class="st30" d="M3213.43,1778.5H319.79c-1.81,0-3.29-1.48-3.29-3.29v-1.12c0-1.81,1.48-3.29,3.29-3.29h2893.64
		c1.81,0,3.29,1.48,3.29,3.29v1.12C3216.71,1777.02,3215.24,1778.5,3213.43,1778.5z"/>
</g>
</svg>
